<svg width="16" height="16" viewBox="0 0 16 16" fill="none" xmlns="http://www.w3.org/2000/svg">
<rect width="16" height="16" rx="4" fill="#121417"/>
<path d="M6.15079 5.67492L8.90963 4.75391L8.72396 5.53855C8.96313 5.5952 9.22328 5.67072 9.5107 5.77352C10.1485 6.00115 10.7265 6.2655 11.2457 6.56551L12.3933 4.14759C11.8468 3.80143 11.2027 3.52344 10.46 3.3147C9.71735 3.1049 8.97362 3 8.22674 3C7.40748 3 6.68787 3.12798 6.06792 3.38288C5.44797 3.63778 4.97068 4.00493 4.63396 4.48222C4.29723 4.96161 4.12834 5.51967 4.12834 6.1564C4.12834 6.81202 4.29199 7.33547 4.62032 7.72779C4.9476 8.11906 5.33678 8.40858 5.78784 8.5953C6.23891 8.78202 6.80116 8.9614 7.47462 9.13448C7.65609 9.17959 7.81659 9.2226 7.96659 9.26665L8.14492 8.51243L10.288 10.2003L7.53021 11.1213L7.67812 10.494C7.32356 10.4226 6.93229 10.3052 6.49171 10.1258C5.76372 9.82891 5.1574 9.47121 4.67487 9.05266L3.5 11.4433C4.12834 11.9258 4.87313 12.3056 5.73434 12.5836C6.59451 12.8615 7.44839 13 8.29492 13C9.0418 13 9.7205 12.8857 10.331 12.658C10.9415 12.4304 11.4262 12.0821 11.786 11.6132C12.1458 11.1443 12.3262 10.5643 12.3262 9.87192C12.3262 9.19742 12.1573 8.65404 11.8206 8.23969C11.4838 7.82534 11.0894 7.52219 10.6384 7.33127C10.1873 7.14035 9.62084 6.94839 8.93795 6.75747C8.76487 6.71132 8.61277 6.66726 8.46906 6.62425L8.29387 7.36274L6.15079 5.67492Z" fill="white"/>
</svg>
