<svg width="112" height="19" viewBox="0 0 112 19" fill="none" xmlns="http://www.w3.org/2000/svg">
<path d="M4.76543 4.83224L9.72509 3.1765L9.3913 4.58708C9.82127 4.68892 10.2889 4.82469 10.8057 5.0095C11.9522 5.41872 12.9913 5.89395 13.9248 6.43329L15.9878 2.08651C15.0053 1.46419 13.8475 0.964454 12.5123 0.589179C11.1772 0.212018 9.84013 0.0234375 8.49743 0.0234375C7.02462 0.0234375 5.73096 0.253506 4.61645 0.711756C3.50194 1.17001 2.6439 1.83004 2.03855 2.68808C1.43321 3.54989 1.1296 4.55314 1.1296 5.69782C1.1296 6.87645 1.42378 7.81747 2.01404 8.52276C2.60241 9.22616 3.30204 9.74664 4.11294 10.0823C4.92383 10.418 5.93463 10.7405 7.14531 11.0516C7.47156 11.1327 7.76008 11.21 8.02975 11.2892L8.35034 9.93334L12.203 12.9676L7.24526 14.6233L7.51116 13.4956C6.87376 13.3674 6.17035 13.1562 5.37831 12.8337C4.06957 12.3 2.97957 11.657 2.1121 10.9045L0 15.2023C1.1296 16.0697 2.46852 16.7524 4.01676 17.2521C5.56312 17.7519 7.09817 18.0008 8.62001 18.0008C9.9627 18.0008 11.1828 17.7953 12.2804 17.386C13.3779 16.9768 14.2491 16.3507 14.896 15.5078C15.5428 14.6648 15.8672 13.622 15.8672 12.3773C15.8672 11.1648 15.5635 10.1879 14.9582 9.44303C14.3529 8.69814 13.6438 8.15314 12.8329 7.80992C12.022 7.46671 11.0037 7.1216 9.77601 6.77839C9.46485 6.69541 9.19141 6.61621 8.93305 6.53889L8.61813 7.8665L4.76543 4.83224Z" fill="white"/>
<path d="M22.9862 5.52344C19.1562 5.52344 16.5273 8.29745 16.5273 11.7372C16.5273 15.6427 19.4239 17.9754 23.1333 17.9754C24.9003 17.9754 27.0143 17.5096 28.1929 16.5007L26.375 13.7757C25.7866 14.2905 24.3119 14.6111 23.6481 14.6111C22.1998 14.6111 21.3399 13.8738 21.0948 13.1138H29.149V12.2048C29.1509 8.02779 26.4731 5.52344 22.9862 5.52344ZM21.0457 10.3115C21.1928 9.77215 21.6341 8.88771 22.9843 8.88771C24.41 8.88771 24.8268 9.79667 24.9493 10.3115H21.0457Z" fill="white"/>
<path d="M35.0922 1.30078H30.6719V17.6809H35.0922V1.30078Z" fill="white"/>
<path d="M41.9672 1.30078H37.5469V17.6809H41.9672V1.30078Z" fill="white"/>
<path d="M48.8461 5.82031H44.4258V17.682H48.8461V5.82031Z" fill="white"/>
<path d="M46.6341 0C45.2593 0 44.1523 1.10508 44.1523 2.47983C44.1523 3.85458 45.2574 4.96155 46.6341 4.96155C48.0088 4.96155 49.1139 3.85647 49.1139 2.47983C49.1139 1.10508 48.0088 0 46.6341 0Z" fill="white"/>
<path d="M59.2573 11.5909L62.8912 5.82031H58.0541L56.4569 8.59622L54.8615 5.82031H50.0225L53.6583 11.5909L49.7773 17.682H54.5899L56.4814 14.5384L58.3238 17.682H63.1609L59.2573 11.5909Z" fill="white"/>
<path d="M111.335 10.7777L109.226 11.0078C109.166 10.7947 109.062 10.5945 108.913 10.407C108.768 10.2195 108.572 10.0682 108.325 9.95312C108.077 9.83807 107.775 9.78054 107.417 9.78054C106.935 9.78054 106.531 9.88494 106.202 10.0938C105.879 10.3026 105.719 10.5732 105.723 10.9055C105.719 11.1911 105.823 11.4233 106.036 11.6023C106.254 11.7812 106.612 11.9283 107.11 12.0433L108.785 12.4013C109.714 12.6016 110.404 12.919 110.856 13.3537C111.312 13.7884 111.542 14.3572 111.546 15.0604C111.542 15.6783 111.361 16.2237 111.003 16.6967C110.649 17.1655 110.157 17.532 109.526 17.7962C108.896 18.0604 108.171 18.1925 107.353 18.1925C106.151 18.1925 105.184 17.9411 104.451 17.4382C103.718 16.9311 103.281 16.2259 103.141 15.3224L105.397 15.1051C105.499 15.5483 105.717 15.8828 106.049 16.1087C106.381 16.3345 106.814 16.4474 107.347 16.4474C107.896 16.4474 108.337 16.3345 108.67 16.1087C109.006 15.8828 109.175 15.6037 109.175 15.2713C109.175 14.9901 109.066 14.7578 108.849 14.5746C108.636 14.3913 108.303 14.2507 107.852 14.1527L106.177 13.8011C105.235 13.6051 104.538 13.2749 104.087 12.8104C103.635 12.3416 103.411 11.7493 103.415 11.0334C103.411 10.4283 103.575 9.90412 103.908 9.46094C104.244 9.01349 104.711 8.66832 105.308 8.42543C105.908 8.17827 106.601 8.05469 107.385 8.05469C108.536 8.05469 109.441 8.29972 110.102 8.78977C110.766 9.27983 111.178 9.94247 111.335 10.7777Z" fill="#777F89"/>
<path d="M97.4663 18.1925C96.4862 18.1925 95.6445 17.9773 94.9414 17.5469C94.2425 17.1165 93.7035 16.522 93.3242 15.7635C92.9492 15.0007 92.7617 14.1229 92.7617 13.13C92.7617 12.1328 92.9535 11.2528 93.337 10.4901C93.7205 9.72301 94.2617 9.12642 94.9606 8.70028C95.6637 8.26989 96.4947 8.05469 97.4535 8.05469C98.2504 8.05469 98.9556 8.2017 99.5692 8.49574C100.187 8.78551 100.679 9.19673 101.046 9.7294C101.412 10.2578 101.621 10.8757 101.672 11.5831H99.4606C99.3711 11.1101 99.158 10.7159 98.8214 10.4006C98.489 10.081 98.0437 9.92116 97.4854 9.92116C97.0124 9.92116 96.5969 10.049 96.239 10.3047C95.881 10.5561 95.6019 10.9183 95.4016 11.3913C95.2056 11.8643 95.1076 12.4311 95.1076 13.0916C95.1076 13.7607 95.2056 14.3359 95.4016 14.8175C95.5977 15.2947 95.8725 15.6634 96.2262 15.9233C96.5842 16.179 97.0039 16.3068 97.4854 16.3068C97.8263 16.3068 98.131 16.2429 98.3995 16.1151C98.6722 15.983 98.9002 15.7933 99.0835 15.5462C99.2667 15.299 99.3924 14.9986 99.4606 14.6449H101.672C101.617 15.3395 101.412 15.9553 101.059 16.4922C100.705 17.0249 100.223 17.4425 99.614 17.745C99.0046 18.0433 98.2887 18.1925 97.4663 18.1925Z" fill="#777F89"/>
<path d="M86.517 18.1925C85.5582 18.1925 84.7273 17.9815 84.0241 17.5597C83.321 17.1378 82.7756 16.5476 82.3878 15.7891C82.0043 15.0305 81.8125 14.1442 81.8125 13.13C81.8125 12.1158 82.0043 11.2273 82.3878 10.4645C82.7756 9.7017 83.321 9.10937 84.0241 8.6875C84.7273 8.26562 85.5582 8.05469 86.517 8.05469C87.4759 8.05469 88.3068 8.26562 89.0099 8.6875C89.7131 9.10937 90.2564 9.7017 90.6399 10.4645C91.0277 11.2273 91.2216 12.1158 91.2216 13.13C91.2216 14.1442 91.0277 15.0305 90.6399 15.7891C90.2564 16.5476 89.7131 17.1378 89.0099 17.5597C88.3068 17.9815 87.4759 18.1925 86.517 18.1925ZM86.5298 16.3388C87.0497 16.3388 87.4844 16.196 87.8338 15.9105C88.1832 15.6207 88.4432 15.233 88.6136 14.7472C88.7884 14.2614 88.8757 13.7202 88.8757 13.1236C88.8757 12.5227 88.7884 11.9794 88.6136 11.4936C88.4432 11.0036 88.1832 10.6136 87.8338 10.3239C87.4844 10.0341 87.0497 9.8892 86.5298 9.8892C85.9972 9.8892 85.554 10.0341 85.2003 10.3239C84.8509 10.6136 84.5888 11.0036 84.4141 11.4936C84.2436 11.9794 84.1584 12.5227 84.1584 13.1236C84.1584 13.7202 84.2436 14.2614 84.4141 14.7472C84.5888 15.233 84.8509 15.6207 85.2003 15.9105C85.554 16.196 85.9972 16.3388 86.5298 16.3388Z" fill="#777F89"/>
<path d="M73.729 18.0011H69.293V4.91016H73.8185C75.1183 4.91016 76.2347 5.17223 77.168 5.69638C78.1055 6.21626 78.8256 6.96413 79.3285 7.93999C79.8313 8.91584 80.0827 10.0835 80.0827 11.4428C80.0827 12.8065 79.8292 13.9783 79.3221 14.9585C78.8192 15.9386 78.0927 16.6907 77.1424 17.2148C76.1964 17.739 75.0586 18.0011 73.729 18.0011ZM71.6644 15.9492H73.614C74.5259 15.9492 75.2866 15.783 75.896 15.4506C76.5053 15.114 76.9634 14.6133 77.2702 13.9485C77.5771 13.2795 77.7305 12.4442 77.7305 11.4428C77.7305 10.4414 77.5771 9.61044 77.2702 8.94993C76.9634 8.28516 76.5096 7.78871 75.9087 7.46058C75.3121 7.1282 74.5707 6.962 73.6843 6.962H71.6644V15.9492Z" fill="#777F89"/>
</svg>
